<?xml version="1.0" encoding="UTF-8" standalone="no"?>
<!-- Created with Inkscape (http://www.inkscape.org/) -->
<svg
   xmlns:svg="http://www.w3.org/2000/svg"
   xmlns="http://www.w3.org/2000/svg"
   version="1.0"
   width="768"
   height="768"
   viewBox="0 0 51.750378 51.791485"
   id="svg55158"
   xml:space="preserve"><defs
     id="defs55161" /><g
     transform="translate(-673.58175,-19.374755)"
     style="display:inline"
     id="layer1"><path
       d="M 8.40625,19.65625 C 6.6442879,19.693984 5.1144961,20.991207 5.125,23.0625 C 5.1310796,24.265169 6.0599416,25.215833 6.96875,26.21875 C 8.3716128,27.766635 8.783322,27.493549 8.71875,29.0625 C 8.6950208,29.636708 7.7423695,30.533684 6.71875,30.53125 C 5.2021922,30.528509 4.1421651,29.072648 4.5625,27.3125 L 4.125,27.3125 L 2.96875,31.5 L 3.40625,31.5 C 3.5341089,31.07009 4.3983491,31.108696 4.75,31.09375 C 5.4123691,31.065778 5.7903888,31.598917 7.15625,31.59375 C 9.0250543,31.586766 10.861555,30.364482 10.84375,28.09375 C 10.834615,26.915462 10.111529,26.114919 9.15625,25.1875 C 7.6867328,23.761394 7.1139103,23.079584 7.375,21.9375 C 7.5909977,20.99246 8.2661488,20.727611 8.9375,20.71875 C 10.195104,20.702653 10.736358,22.028554 10.90625,23.40625 L 11.3125,23.40625 L 12.34375,19.90625 L 11.90625,19.90625 C 11.810311,20.319689 11.30467,20.340491 10.90625,20.3125 C 10.726764,20.299702 10.625481,20.33574 10.1875,20.1875 C 9.7206138,20.029196 8.9844396,19.64409 8.40625,19.65625 z M 12.8125,20.125 L 12.6875,20.8125 C 13.377882,20.815524 13.626989,20.800058 13.625,22.09375 L 13.625,31.5 C 13.625,31.5 13.807072,31.912858 14.0625,31.5 C 14.318102,31.086839 18.46875,24.21875 18.46875,24.21875 L 18.46875,24.4375 L 18.4375,31.5 C 18.4375,31.5 18.701734,31.912858 18.96875,31.5 C 19.235751,31.086839 24.968732,21.625 24.96875,21.625 C 25.230136,21.155501 25.428783,20.828624 26.09375,20.8125 L 26.25,20.125 L 22.71875,20.125 L 22.59375,20.8125 C 23.366796,20.813993 23.881588,20.692242 23.90625,21.15625 C 23.916601,21.350823 23.881397,21.507037 23.75,21.75 L 20.84375,26.5 L 20.78125,26.40625 L 20.78125,22.09375 C 20.784,21.899813 20.785076,21.708626 20.78125,21.5625 C 20.762079,20.830228 20.963268,20.813993 21.53125,20.8125 L 21.65625,20.125 L 17.71875,20.125 L 17.59375,20.8125 C 18.186699,20.828625 18.445871,21.000565 18.4375,21.53125 L 18.4375,22.5 L 15.90625,26.59375 L 15.8125,26.65625 L 15.8125,22.0625 C 15.812662,21.900854 15.814022,21.647187 15.8125,21.46875 C 15.810065,21.218498 15.755383,20.813993 16.46875,20.8125 L 16.65625,20.125 L 12.8125,20.125 z M 26.78125,20.125 L 26.65625,20.8125 C 26.978968,20.795727 27.308422,20.917714 27.34375,21.28125 C 27.358974,21.439572 27.265435,21.671913 27.1875,21.96875 L 25.03125,30 C 24.903971,30.533447 24.262272,30.819178 23.40625,30.8125 L 23.28125,31.5 L 27.875,31.5 L 28.03125,30.8125 C 27.219834,30.796066 27.270906,30.571389 27.28125,30.28125 C 27.287645,30.099784 27.375378,29.933086 27.4375,29.71875 L 29.625,21.65625 C 29.850002,20.902104 30.392444,20.829254 31.21875,20.8125 L 31.375,20.125 L 26.78125,20.125 z M 32,20.125 L 31.84375,20.8125 C 32.528196,20.86427 33.49968,20.856736 33.25,21.65625 C 33.195508,21.831034 33.255406,21.750843 33.1875,22.03125 L 31.09375,29.84375 C 30.930851,30.568982 30.423547,30.796029 29.8125,30.8125 L 29.625,31.5 L 34.5,31.5 L 34.6875,30.8125 C 33.621245,30.809759 33.190077,30.667005 33.40625,29.84375 C 33.452234,29.668367 33.539547,29.357715 33.59375,29.09375 L 34.59375,25.65625 L 34.8125,25.65625 C 35.765475,25.652608 36.034462,25.771285 36.0625,26.28125 C 36.080131,26.608866 36.07123,26.87467 36.09375,27.0625 L 36.625,27.0625 L 37.4375,23.71875 L 37,23.65625 C 36.54936,24.808072 35.588234,24.824348 35.25,24.8125 L 34.8125,24.8125 L 35.5,22.0625 C 35.798952,21.0465 35.895991,21.102895 36.65625,21.09375 C 37.980676,21.077909 38.766782,21.295 38.65625,23.15625 L 39.09375,23.15625 L 39.90625,20.125 L 32,20.125 z M 40.53125,20.125 L 39.6875,23.15625 L 40.1875,23.15625 C 40.431685,22.309535 40.438182,22.167204 40.9375,21.71875 C 41.450236,21.270564 42.001193,21.093749 42.875,21.09375 L 40.59375,29.4375 C 40.435705,30.80029 39.651557,30.795726 38.65625,30.8125 L 38.5,31.5 L 43.65625,31.5 L 43.78125,30.875 C 43.121459,30.93617 42.715256,30.50241 42.84375,30 C 42.893101,29.806681 42.983934,29.519702 43.0625,29.1875 L 45.1875,21.09375 C 46.806061,21.09279 47.130507,21.742596 47.03125,23.15625 L 47.5,23.15625 L 48.3125,20.125 L 40.53125,20.125 z M 21,30.21875 C 20.729167,30.217836 20.444401,30.555881 20.375,30.96875 C 20.305402,31.381618 20.479168,31.717836 20.75,31.71875 C 21.020512,31.719957 21.305427,31.381638 21.375,30.96875 C 21.444569,30.556203 21.270493,30.21996 21,30.21875 z M 29,30.21875 C 28.72932,30.217836 28.444402,30.555881 28.375,30.96875 C 28.305287,31.381618 28.47933,31.717836 28.75,31.71875 C 29.020664,31.719957 29.305561,31.381638 29.375,30.96875 C 29.444713,30.556203 29.270665,30.21996 29,30.21875 z M 35.875,30.21875 C 35.604329,30.217836 35.319401,30.555881 35.25,30.96875 C 35.180287,31.381618 35.323051,31.717836 35.59375,31.71875 C 35.864405,31.719957 36.14931,31.381638 36.21875,30.96875 C 36.288454,30.556203 36.145645,30.21996 35.875,30.21875 z M 11.25,30.25 C 10.979504,30.248772 10.725689,30.58715 10.65625,31 C 10.586699,31.412877 10.729504,31.748784 11,31.75 C 11.27068,31.75121 11.555595,31.412859 11.625,31 C 11.694594,30.58716 11.52068,30.251197 11.25,30.25 z M 45.0625,30.25 C 44.791829,30.249096 44.506902,30.587141 44.4375,31 C 44.367778,31.412896 44.54183,31.749096 44.8125,31.75 C 45.083146,31.751235 45.368063,31.412877 45.4375,31 C 45.507222,30.587444 45.333147,30.251229 45.0625,30.25 z "
       transform="translate(673.58175,19.374755)"
       style="fill:#3c60a7;fill-opacity:1;stroke:#3c60a7;stroke-width:0.1558875;stroke-linecap:butt;stroke-linejoin:miter;stroke-miterlimit:4;stroke-dasharray:none;stroke-opacity:1"
       id="path55487" /><path
       d="M 296.7739,500.67966 C 252.18158,500.67966 216.03128,464.5293 216.03128,419.93652 C 216.03128,375.3447 252.18158,339.19431 296.7739,339.19431 C 341.36615,339.19431 377.51758,375.3447 377.51758,419.93652 C 377.51758,464.5293 341.36615,500.67966 296.7739,500.67966 z M 220.5239,446.37399 L 373.14838,446.37399 M 220.5239,393.37399 L 373.14838,393.37399 M 236.7739,365.87399 L 356.77335,365.87399 M 236.7739,473.87399 L 356.77335,473.87399 M 296.64886,446.37399 L 296.64886,500.62396 M 296.64886,393.37399 L 296.64886,339.24902 M 298.86816,500.53134 C 298.8681,500.53134 331.74319,482.78134 338.24316,446.53134 M 294.60394,500.5029 C 294.60394,500.5029 261.09518,482.98932 254.32076,446.78906 M 294.47067,339.49803 C 294.47064,339.49803 261.3457,357.06543 254.84567,393.3154 M 299.14056,339.49412 C 299.1405,339.49415 332.15039,356.8262 338.9238,393.02643"
       transform="matrix(0.311775,0,0,-0.311775,606.93009,176.17565)"
       style="fill:none;stroke:#3c60a7;stroke-width:4.5;stroke-linecap:butt;stroke-linejoin:miter;stroke-miterlimit:4;stroke-opacity:1"
       id="path55525" /></g></svg>